<svg width="6" height="8" viewBox="0 0 6 8" fill="none" xmlns="http://www.w3.org/2000/svg">
<path d="M0.279313 0.224482C0.100414 0.366671 -1.84616e-07 0.559015 -1.79642e-07 0.759505C-1.74668e-07 0.959996 0.100414 1.15234 0.279313 1.29453L3.67957 4.01897L0.279313 6.70547C0.100415 6.84766 -2.38182e-08 7.04001 -1.88439e-08 7.2405C-1.38696e-08 7.44099 0.100415 7.63333 0.279313 7.77552C0.368606 7.84665 0.474841 7.90311 0.59189 7.94164C0.708939 7.98016 0.834485 8 0.961285 8C1.08809 8 1.21363 7.98016 1.33068 7.94164C1.44773 7.90311 1.55396 7.84665 1.64326 7.77552L5.71588 4.55779C5.80591 4.48724 5.87736 4.40331 5.92613 4.31083C5.97489 4.21835 6 4.11916 6 4.01897C6 3.91879 5.97489 3.8196 5.92613 3.72712C5.87736 3.63464 5.80591 3.5507 5.71588 3.48016L1.64326 0.224482C1.55396 0.153352 1.44773 0.0968942 1.33068 0.0583662C1.21363 0.0198378 1.08809 8.6988e-07 0.961285 8.79645e-07C0.834484 8.8941e-07 0.708938 0.0198378 0.59189 0.0583663C0.474841 0.0968942 0.368606 0.153352 0.279313 0.224482Z" fill="#333333"/>
</svg>
