<svg width="101" height="81" viewBox="0 0 101 81" fill="none" xmlns="http://www.w3.org/2000/svg">
<path d="M5.12793 63.2515H97.8808C97.8808 63.2515 93.0827 73.9219 83.4867 80.8913H19.1734C13.5024 75.888 8.74809 69.917 5.12793 63.2515Z" fill="#DF4539"/>
<path d="M76.9801 0H19.5222C10.2365 6.74422 5.45584 16.9503 5.14551 17.6046H74.4242C76.2334 17.6056 77.9682 18.3314 79.2472 19.6224C80.5262 20.9135 81.2447 22.6642 81.2447 24.4896V24.6373C81.2447 26.4624 80.5261 28.2127 79.247 29.5032C77.9679 30.7938 76.2331 31.5188 74.4242 31.5188H0.741489C0.570628 32.6375 -0.84856 42.5129 0.758923 49.053H76.9801C83.3769 48.9757 89.4857 46.3577 93.9821 41.7664C98.4785 37.1752 101 30.9809 101 24.5265C101 18.0721 98.4785 11.8778 93.9821 7.28658C89.4857 2.69536 83.3769 0.0772984 76.9801 0Z" fill="#DF4539"/>
</svg>
