<svg width="251" height="54" viewBox="0 0 251 54" fill="none" xmlns="http://www.w3.org/2000/svg">
<g clip-path="url(#clip0_335_68)">
<mask id="mask0_335_68" style="mask-type:luminance" maskUnits="userSpaceOnUse" x="-9" y="-7" width="269" height="68">
<path d="M259.331 -6.80884H-8.33105V60.8067H259.331V-6.80884Z" fill="white"/>
</mask>
<g mask="url(#mask0_335_68)">
<path d="M73.2744 9.98693H76.3347V14.56H76.4417C78.1927 11.63 81.0411 9.27246 86.4278 9.27246C92.6041 9.27246 96.4004 13.4241 96.4004 19.5478V35.8949H93.2331V19.9737C93.2331 14.6501 89.6866 12.1664 85.2501 12.1664C80.392 12.1664 76.4417 15.1685 76.4417 21.2922V35.8949H73.2744V9.98693Z" fill="#DF4539"/>
<path d="M126.414 9.98682L115.266 35.8948H111.842L100.694 9.98682H104.283L113.529 32.4555L122.826 9.98682H126.414Z" fill="#DF4539"/>
<path d="M129.091 22.942C129.091 14.3773 135.245 9.4707 142.835 9.4707C150.481 9.46845 156.577 14.3773 156.577 22.942C156.577 31.4683 150.475 36.4155 142.835 36.4155C135.252 36.4155 129.091 31.457 129.091 22.942ZM153.348 22.942C153.348 15.9235 148.733 11.968 142.835 11.9206C136.938 11.8733 132.374 15.9235 132.374 22.942C132.374 29.9154 136.938 33.9655 142.835 33.9182C148.733 33.8709 153.348 29.9154 153.348 22.942Z" fill="#DF4539"/>
<path d="M165.442 0.0383301H162.366V35.8948H165.442V0.0383301Z" fill="#DF4539"/>
<path d="M179.012 12.3893V28.5449C179.012 31.6552 180.351 33.4921 183.165 33.4921H187.934V35.8947H182.652C178.243 35.8947 175.934 33.3028 175.934 28.9686V12.3893H170.037V9.98672H175.934V2.9209H179.012V9.98672H187.934V12.3893H179.012Z" fill="#DF4539"/>
<path d="M222.65 22.8924C222.65 14.9792 227.869 9.46851 236.637 9.46851C244.623 9.46851 249.006 14.1791 249.632 19.879H246.345C245.979 15.6395 242.586 11.9184 236.637 11.9184C230.008 11.9184 225.991 16.4397 225.991 22.8924C225.991 29.6765 230.635 33.916 236.637 33.916C242.535 33.916 245.769 29.8591 246.345 26.5211H249.632C248.901 31.705 244.362 36.4133 236.637 36.4133C228.286 36.4133 222.65 31.0424 222.65 22.8902" fill="#DF4539"/>
<path d="M136.784 46.6074L136.733 46.6907V45.4399H136.005V51.638H136.786V48.2932C136.786 46.7674 137.578 45.8906 138.961 45.8906C140.147 45.8906 140.723 46.4699 140.723 47.6599V51.647H141.501V47.4165C141.501 46.0642 140.654 45.2776 139.173 45.2776C138.071 45.2776 137.357 45.6788 136.784 46.6164" fill="#DF4539"/>
<path d="M238.11 46.6074L238.056 46.6907V45.4399H237.331V51.638H238.11V48.2932C238.11 46.7674 238.904 45.8906 240.284 45.8906C241.471 45.8906 242.049 46.4699 242.049 47.6599V51.647H242.825V47.4165C242.825 46.0642 241.975 45.2776 240.494 45.2776C239.394 45.2776 238.681 45.6788 238.107 46.6164" fill="#DF4539"/>
<path d="M152.007 46.63V45.449H151.175V51.6471H152.043V49.1205C152.015 48.5954 152.077 48.0692 152.226 47.5654C152.527 46.6638 153.531 46.0621 154.722 46.0621H154.849H155.034V45.3408C153.531 45.3634 152.699 45.3836 152.05 46.5263L152.007 46.63Z" fill="#DF4539"/>
<path d="M158.993 45.2776C157.079 45.2776 155.794 46.5578 155.794 48.4601C155.794 50.306 157.021 51.4983 158.917 51.4983C160.09 51.4983 160.925 51.0475 161.411 50.1459L161.464 50.049V51.1917C161.464 52.7582 160.722 53.4569 159.058 53.4569C157.795 53.4569 157.079 53.0286 156.928 52.1834H156.089C156.203 53.3306 157.267 53.9865 159.018 53.9865C161.157 53.9865 162.243 53.0669 162.243 51.2503V45.4354H161.493V46.6795L161.44 46.5871C160.954 45.7239 160.102 45.2664 158.986 45.2664M161.44 48.3045C161.44 49.9025 160.503 50.8942 158.986 50.8942C157.543 50.8942 156.609 49.9115 156.609 48.3879C156.609 46.8283 157.532 45.8591 159.015 45.8591C160.499 45.8591 161.433 46.8193 161.433 48.3045" fill="#DF4539"/>
<path d="M175.24 44.7028V45.4488H173.851V46.0123H175.24V51.6469H176.019V46.0123H177.607V45.4488H176.019V44.7727C176.019 44.4075 176.019 44.1168 176.146 43.9094C176.273 43.7021 176.554 43.5804 177.038 43.5804C177.289 43.5767 177.54 43.588 177.79 43.6142V43.0237C177.513 42.9922 177.236 42.9772 176.958 42.9786C175.747 42.9786 175.251 43.4767 175.251 44.7028" fill="#DF4539"/>
<path d="M181.88 45.2664C179.842 45.2664 178.535 46.5533 178.535 48.548C178.535 50.5426 179.851 51.8296 181.88 51.8296C183.91 51.8296 185.195 50.5832 185.195 48.5728C185.195 46.5623 183.926 45.2664 181.88 45.2664ZM181.896 51.2548C180.335 51.2548 179.353 50.2181 179.353 48.5502C179.353 46.8824 180.339 45.8456 181.867 45.8456C183.395 45.8456 184.381 46.9072 184.381 48.5502C184.381 50.1933 183.406 51.2548 181.896 51.2548Z" fill="#DF4539"/>
<path d="M232.482 45.2664C230.443 45.2664 229.125 46.5533 229.125 48.548C229.125 50.5426 230.443 51.8296 232.482 51.8296C234.521 51.8296 235.794 50.5832 235.794 48.5728C235.794 46.5623 234.525 45.2664 232.482 45.2664ZM232.495 51.2548C230.934 51.2548 229.953 50.2181 229.953 48.5502C229.953 46.8824 230.941 45.8456 232.466 45.8456C233.992 45.8456 234.98 46.9072 234.98 48.5502C234.98 50.1933 234.005 51.2548 232.495 51.2548Z" fill="#DF4539"/>
<path d="M187.492 46.8103V45.458H186.765V51.6561H187.532V49.1205C187.507 48.5976 187.561 48.0739 187.693 47.5676C187.956 46.6661 188.842 46.0621 189.892 46.0621H190.189H190.635V45.3408C189.172 45.3701 188.086 45.6135 187.548 46.6931L187.492 46.8103Z" fill="#DF4539"/>
<path d="M218.229 46.8103V45.458H217.504V51.6561H218.269V49.1205C218.243 48.5976 218.298 48.0739 218.43 47.5676C218.695 46.6661 219.578 46.0621 220.629 46.0621H220.928H221.374V45.3408C219.908 45.3701 218.822 45.6135 218.285 46.6931L218.229 46.8103Z" fill="#DF4539"/>
<path d="M205.575 51.0025L205.473 50.7207C205.292 50.2339 205.105 49.729 204.9 49.2399L203.247 45.449H202.386L205.1 51.6471H206.006L208.598 45.449H207.786L206.256 49.1791C206.033 49.7606 205.81 50.3511 205.609 50.9213L205.575 51.0025Z" fill="#DF4539"/>
<path d="M128.913 47.7412H133.907V47.1417H128.913V44.1328H134.243V43.522H128.116V51.6494H134.295V51.0386H128.913V47.7412Z" fill="#DF4539"/>
<path d="M146.426 45.2776C144.463 45.2776 143.081 46.6524 143.081 48.62C143.081 50.5877 144.394 51.8543 146.426 51.8543C147.968 51.8543 149.043 51.1782 149.46 49.925H148.63C148.284 50.8266 147.53 51.2909 146.453 51.2909C144.789 51.2909 143.712 50.3735 143.712 48.9559V48.9288H149.634V48.5119C149.634 47.0198 148.795 45.2776 146.426 45.2776ZM149.014 48.2504H143.723V48.2166C143.877 47.128 144.666 45.8546 146.4 45.8546C147.865 45.8546 148.916 46.8057 149.014 48.2189V48.2504Z" fill="#DF4539"/>
<path d="M198.46 45.2776C196.495 45.2776 195.114 46.6524 195.114 48.62C195.114 50.5877 196.43 51.8543 198.46 51.8543C200.004 51.8543 201.079 51.1782 201.494 49.925H200.668C200.323 50.8266 199.571 51.2909 198.493 51.2909C196.827 51.2909 195.752 50.3735 195.752 48.9559V48.9288H201.656V48.5119C201.656 47.0198 200.818 45.2776 198.451 45.2776M201.036 48.2504H195.761V48.2166C195.913 47.128 196.705 45.8546 198.438 45.8546C199.903 45.8546 200.954 46.8057 201.05 48.2189L201.036 48.2504Z" fill="#DF4539"/>
<path d="M212.713 45.2776C210.75 45.2776 209.367 46.6524 209.367 48.62C209.367 50.5877 210.681 51.8543 212.713 51.8543C214.254 51.8543 215.332 51.1782 215.746 49.925H214.917C214.571 50.8266 213.819 51.2909 212.742 51.2909C211.076 51.2909 210.001 50.3735 210.001 48.9559V48.9288H215.905V48.5119C215.905 47.0198 215.066 45.2776 212.697 45.2776M215.285 48.2504H210.01V48.2166C210.161 47.128 210.953 45.8546 212.686 45.8546C214.152 45.8546 215.2 46.8057 215.298 48.2189L215.285 48.2504Z" fill="#DF4539"/>
<path d="M247.792 45.2776C245.827 45.2776 244.446 46.6524 244.446 48.62C244.446 50.5877 245.762 51.8543 247.792 51.8543C249.336 51.8543 250.411 51.1782 250.828 49.925H249.998C249.65 50.8266 248.898 51.2909 247.821 51.2909C246.157 51.2909 245.08 50.3735 245.08 48.9559V48.9288H250.986V48.5119C250.986 47.0198 250.145 45.2776 247.779 45.2776M250.364 48.2504H245.075V48.2166C245.229 47.128 246.019 45.8546 247.752 45.8546C249.217 45.8546 250.268 46.8057 250.366 48.2189L250.364 48.2504Z" fill="#DF4539"/>
<path d="M166.483 50.8446L166.456 50.9213L166.43 50.8469C166.341 50.5945 166.291 50.4502 166.256 50.351C166.187 50.1435 166.108 49.9396 166.019 49.7402L164.186 45.4579H163.332L166.062 51.6357L166.013 51.7597C165.758 52.4245 165.465 53.0733 165.134 53.7025H165.917C166.073 53.3892 166.53 52.3096 166.695 51.8994L169.356 45.4512H168.569L166.894 49.6569C166.807 49.8665 166.74 50.0693 166.63 50.4006C166.59 50.5268 166.541 50.6733 166.483 50.8514" fill="#DF4539"/>
<path d="M225.44 50.8446L225.414 50.9213L225.387 50.8469C225.298 50.5945 225.248 50.4502 225.213 50.351C225.144 50.1435 225.065 49.9396 224.976 49.7402L223.143 45.4579H222.289L225.019 51.6357L224.965 51.7665C224.712 52.429 224.42 53.0755 224.091 53.7025H224.872C225.03 53.3892 225.487 52.3096 225.652 51.8994L228.313 45.4512H227.526L225.851 49.6569C225.764 49.8665 225.697 50.0693 225.587 50.4006C225.547 50.5268 225.498 50.6733 225.44 50.8514" fill="#DF4539"/>
<path d="M214.703 28.3107C213.181 31.732 209.59 33.916 205.08 33.916C199.14 33.916 194.934 30.5037 194.617 24.1456H218.332V21.5266C218.332 14.6501 212.706 9.46851 205.08 9.46851C196.93 9.46851 191.251 14.5081 191.251 22.9398C191.251 31.0424 196.827 36.4133 205.08 36.4133C211.689 36.4133 216.648 33.0145 217.97 28.2994L214.703 28.3107ZM205.268 11.9184C211.261 11.9184 215.22 15.8852 215.595 21.3846H194.628C194.949 16.1264 199.125 11.9184 205.279 11.9184" fill="#DF4539"/>
<path d="M3.28076 40.522H62.6125C62.6125 40.522 59.5433 47.3579 53.4049 51.8228H12.2653C8.63768 48.6175 5.59649 44.7922 3.28076 40.522Z" fill="#DF4539"/>
<path d="M49.2428 0H12.4884C6.5485 4.32063 3.49046 10.8591 3.29194 11.2783H47.6078C48.7651 11.2789 49.8749 11.7438 50.693 12.571C51.5111 13.3981 51.9707 14.5196 51.9707 15.6891V15.7837C51.9707 16.9529 51.5111 18.0743 50.6929 18.901C49.8747 19.7278 48.7649 20.1922 47.6078 20.1922H0.474801C0.365505 20.909 -0.542315 27.2355 0.485953 31.4254H49.2428C53.3347 31.3759 57.2423 29.6987 60.1185 26.7574C62.9948 23.816 64.6077 19.8477 64.6077 15.7127C64.6077 11.5777 62.9948 7.60941 60.1185 4.66809C57.2423 1.72676 53.3347 0.0495206 49.2428 0Z" fill="#DF4539"/>
</g>
</g>
<defs>
<clipPath id="clip0_335_68">
<rect width="251" height="54" fill="white"/>
</clipPath>
</defs>
</svg>
